<?xml version="1.0" encoding="UTF-8" standalone="no"?>
<!-- Created with Inkscape (http://www.inkscape.org/) -->

<svg
   width="150"
   height="150"
   viewBox="0 0 39.687495 39.687495"
   version="1.1"
   id="svg1"
   inkscape:version="1.4 (86a8ad7, 2024-10-11)"
   sodipodi:docname="flag.svg"
   xml:space="preserve"
   inkscape:export-filename="flagicon.svg"
   inkscape:export-xdpi="96"
   inkscape:export-ydpi="96"
   xmlns:inkscape="http://www.inkscape.org/namespaces/inkscape"
   xmlns:sodipodi="http://sodipodi.sourceforge.net/DTD/sodipodi-0.dtd"
   xmlns="http://www.w3.org/2000/svg"
   xmlns:svg="http://www.w3.org/2000/svg"><sodipodi:namedview
     id="namedview1"
     pagecolor="#ffffff"
     bordercolor="#000000"
     borderopacity="0.25"
     inkscape:showpageshadow="2"
     inkscape:pageopacity="0.0"
     inkscape:pagecheckerboard="0"
     inkscape:deskcolor="#d1d1d1"
     inkscape:document-units="mm"
     inkscape:zoom="2.8284271"
     inkscape:cx="68.412581"
     inkscape:cy="123.92046"
     inkscape:window-width="1920"
     inkscape:window-height="1001"
     inkscape:window-x="-9"
     inkscape:window-y="-9"
     inkscape:window-maximized="1"
     inkscape:current-layer="svg1"
     inkscape:export-bgcolor="#ffffff00"><inkscape:page
       x="0"
       y="0"
       width="39.687496"
       height="39.687496"
       id="page2"
       margin="0"
       bleed="0" /></sodipodi:namedview><defs
     id="defs1" /><g
     inkscape:groupmode="layer"
     id="layer3"
     inkscape:label="Flag"
     style="display:inline"
     transform="translate(-6.6145833,-6.6145833)"><rect
       style="font-variation-settings:'wdth' 90, 'wght' 450;fill:#000000;fill-opacity:1;stroke-width:0.288999;stroke-linecap:round;stroke-linejoin:round"
       id="rect5"
       width="27.351301"
       height="6.3499999"
       x="13.328385"
       y="37.636978"
       rx="1.2"
       ry="1.2" /><rect
       style="font-variation-settings:'wdth' 90, 'wght' 450;fill:#000000;fill-opacity:1;stroke-width:0.349303;stroke-linecap:round;stroke-linejoin:round"
       id="rect6"
       width="15.841927"
       height="5.5562496"
       x="19.15"
       y="33.866665"
       rx="1.2"
       ry="1.2" /><rect
       style="font-variation-settings:'wdth' 90, 'wght' 450;display:inline;fill:#000000;fill-opacity:1;stroke-width:0.29137;stroke-linecap:round;stroke-linejoin:round"
       id="rect7"
       width="1.6867187"
       height="23.465235"
       x="29.434895"
       y="11.195182" /><path
       id="path7"
       style="font-variation-settings:'wdth' 90, 'wght' 450;fill:#ed1c24;fill-opacity:1;stroke-width:0.288999;stroke-linecap:round;stroke-linejoin:round"
       inkscape:transform-center-x="3.1156915"
       inkscape:transform-center-y="0.83539293"
       transform="matrix(-0.563118,-0.85256751,1.0254556,-0.29040349,13.225512,34.238044)"
       d="m 18.322271,27.516358 c 0,0 -0.325203,-15.844751 -0.327762,-16.087094 -0.0014,-0.08698 -0.0092,-0.138187 -0.02658,-0.213067 -0.0077,-0.03309 -0.02234,-0.07288 -0.03905,-0.102879 -0.02713,-0.04646 -0.05227,-0.07541 -0.08053,-0.117866 -0.05938,-0.08273 -0.119181,-0.143363 -0.181801,-0.201046 -0.086,-0.08005 -0.179051,-0.151469 -0.27336,-0.220664 -0.09754,-0.0706 -0.199001,-0.133014 -0.301336,-0.193696 -0.1,-0.05956 -0.190326,-0.111179 -0.293672,-0.159252 -0.147288,-0.05964 -0.132763,-0.06188 -0.331607,-0.106802 -0.190502,-0.03026 -0.141883,-0.02056 -0.246844,-0.0082 -1.994894,0.394483 -14.0874542,8.501857 -14.0874542,8.501857 z"
       sodipodi:nodetypes="ccscccccccccc" /></g></svg>
